# Blender v3.2.0 OBJ File: ''
# www.blender.org
mtllib face_cube.mtl
o Cube_Cube.001
v -0.500000 -0.500000 0.500000
v -0.500000 0.500000 0.500000
v -0.500000 -0.500000 -0.500000
v -0.500000 0.500000 -0.500000
v 0.500000 -0.500000 0.500000
v 0.500000 0.500000 0.500000
v 0.500000 -0.500000 -0.500000
v 0.500000 0.500000 -0.500000
vt 0.999401 0.000599
vt 0.999401 0.999401
vt 0.000599 0.999400
vt 0.000599 0.000599
vt 0.000599 0.999400
vt 0.000599 0.000599
vt 0.999401 0.000600
vt 0.999401 0.999400
vt 0.000599 0.999401
vt 0.000599 0.000599
vt 0.999401 0.000599
vt 0.999401 0.999401
vt 0.000599 0.999401
vt 0.000599 0.000599
vt 0.999401 0.000599
vt 0.000599 0.999401
vt 0.999401 0.999401
vt 0.999401 0.000599
vn -1.0000 0.0000 0.0000
vn 0.0000 0.0000 -1.0000
vn 1.0000 0.0000 0.0000
vn 0.0000 0.0000 1.0000
vn 0.0000 -1.0000 0.0000
vn 0.0000 1.0000 0.0000
usemtl None
s off
f 1/1/1 2/2/1 4/3/1 3/4/1
f 3/5/2 4/6/2 8/7/2 7/8/2
f 7/8/3 8/9/3 6/10/3 5/11/3
f 5/12/4 6/13/4 2/14/4 1/1/4
f 3/4/5 7/15/5 5/12/5 1/16/5
f 8/17/6 4/3/6 2/14/6 6/18/6
